HIERARCHY
ROOT Hips
{
	OFFSET -3.958830 18.904000 13.208200
	CHANNELS 6 Xposition Yposition Zposition Zrotation Yrotation Xrotation 
	JOINT LHipJoint
	{
		OFFSET 0.000000 0.000000 0.000000
		CHANNELS 3 Zrotation Yrotation Xrotation
		JOINT LeftUpLeg
		{
			OFFSET 1.800000 -1.400000 0.085000
			CHANNELS 3 Zrotation Yrotation Xrotation
			JOINT LeftLeg
			{
				OFFSET 2.215000 -6.000000 0.000000
				CHANNELS 3 Zrotation Yrotation Xrotation
				JOINT LeftFoot
				{
					OFFSET 2.500000 -6.900000 0.000000
					CHANNELS 3 Zrotation Yrotation Xrotation
					JOINT LeftToeBase
					{
						OFFSET 0.200000 -0.500000 1.950000
						CHANNELS 3 Zrotation Yrotation Xrotation
						End Site
						{
							OFFSET 0.000000 0.000000 0.000000
						}
					}
				}
			}
		}
	}
	JOINT RHipJoint
	{
		OFFSET 0.000000 0.000000 0.000000
		CHANNELS 3 Zrotation Yrotation Xrotation
		JOINT RightUpLeg
		{
			OFFSET -1.800000 -1.400000 0.085000
			CHANNELS 3 Zrotation Yrotation Xrotation
			JOINT RightLeg
			{
				OFFSET -2.215000 -6.000000 0.000000
				CHANNELS 3 Zrotation Yrotation Xrotation
				JOINT RightFoot
				{
					OFFSET -2.500000 -6.900000 0.000000
					CHANNELS 3 Zrotation Yrotation Xrotation
					JOINT RightToeBase
					{
						OFFSET -0.200000 -0.500000 1.950000
						CHANNELS 3 Zrotation Yrotation Xrotation
						End Site
						{
							OFFSET 0.000000 0.000000 0.000000
						}
					}
				}
			}
		}
	}
	JOINT LowerBack
	{
		OFFSET 0.000000 0.000000 0.000000
		CHANNELS 3 Zrotation Yrotation Xrotation
		JOINT Spine
		{
			OFFSET -0.087000 1.940000 -0.288900
			CHANNELS 3 Zrotation Yrotation Xrotation
			JOINT Spine1
			{
				OFFSET 0.000000 1.950000 0.060000
				CHANNELS 3 Zrotation Yrotation Xrotation
				JOINT Neck
				{
					OFFSET 0.000000 0.000000 0.000000
					CHANNELS 3 Zrotation Yrotation Xrotation
					JOINT Neck1
					{
						OFFSET 0.000000 1.600000 0.340000
						CHANNELS 3 Zrotation Yrotation Xrotation
						JOINT Head
						{
							OFFSET 0.000000 1.667000 -0.240000
							CHANNELS 3 Zrotation Yrotation Xrotation
							End Site
							{
								OFFSET 0.000000 0.000000 0.000000
							}
						}
					}
				}
				JOINT LeftShoulder
				{
					OFFSET 0.000000 0.000000 0.000000
					CHANNELS 3 Zrotation Yrotation Xrotation
					JOINT LeftArm
					{
						OFFSET 2.700000 1.550000 -0.730000
						CHANNELS 3 Zrotation Yrotation Xrotation
						JOINT LeftForeArm
						{
							OFFSET 5.450000 0.000000 0.000000
							CHANNELS 3 Zrotation Yrotation Xrotation
							JOINT LeftHand
							{
								OFFSET 3.450000 0.000000 0.000000
								CHANNELS 3 Zrotation Yrotation Xrotation
								JOINT LeftHandIndex1
								{
									OFFSET 0.750000 0.000000 0.000000
									CHANNELS 3 Zrotation Yrotation Xrotation
									End Site
									{
										OFFSET 0.000000 0.000000 0.000000
									}
								}
							}
						}
					}
				}
				JOINT RightShoulder
				{
					OFFSET 0.000000 0.000000 0.000000
					CHANNELS 3 Zrotation Yrotation Xrotation
					JOINT RightArm
					{
						OFFSET -2.700000 1.550000 -0.730000
						CHANNELS 3 Zrotation Yrotation Xrotation
						JOINT RightForeArm
						{
							OFFSET -5.450000 0.000000 0.000000
							CHANNELS 3 Zrotation Yrotation Xrotation
							JOINT RightHand
							{
								OFFSET -3.450000 0.000000 0.000000
								CHANNELS 3 Zrotation Yrotation Xrotation
								JOINT RightHandIndex1
								{
									OFFSET -0.750000 0.000000 0.000000
									CHANNELS 3 Zrotation Yrotation Xrotation
									End Site
									{
										OFFSET 0.000000 0.000000 0.000000
									}
								}
							}
						}
					}
				}
			}
		}
	}
}
MOTION
Frames: 7
Frame Time: 0.016667
0.393430 16.874550 -2.388090 -2.410551 21.173404 -12.701265 -14.715939 12.996780 3.080129 2.575931 -0.178262 0.817261 -9.445989 6.855570 12.876660 0.765049 4.219581 3.200430 0.315670 0.144100 0.343000 18.540692 -12.211244 2.505190 -5.970721 -0.432296 -7.977005 6.780541 -9.185539 31.298747 -0.794971 -5.302908 2.431008 -0.281490 -0.277210 0.228620 -5.366578 0.963851 -7.637207 31.973803 -15.184505 28.854914 -30.126865 -4.369323 15.066897 12.527025 -5.014364 -15.952591 -13.473290 -5.466177 44.276511 8.338220 -15.462770 -18.321670 -13.640960 -6.727495 6.154888 -50.194171 -2.387292 -12.664056 168.183177 -79.495476 178.416152 -2.761498 3.812957 0.339960 -0.427380 0.421700 0.150470 -11.687783 12.799446 15.177728 24.086626 -12.839478 -12.970030 -152.095321 50.973402 -147.315413 2.436934 -2.654691 0.329570 -0.207360 -0.354240 0.158620 
0.430150 16.857710 -2.388580 -2.152433 21.863148 -12.081268 -14.754013 13.094399 3.157261 2.214573 -0.159784 0.635466 -9.755586 6.825050 12.305221 0.805161 4.162722 3.211211 0.319170 0.146220 0.349540 18.491240 -12.109858 2.486422 -6.456201 -0.229450 -8.980975 7.045199 -9.425164 32.270384 -0.803416 -5.351869 2.403838 -0.299990 -0.313820 0.220260 -5.280733 0.593983 -7.670375 32.446467 -15.899071 28.413902 -30.929542 -4.721301 12.595637 13.086792 -5.371251 -16.030751 -14.647849 -4.920776 46.177320 7.842090 -16.039870 -17.558500 -14.339186 -5.411519 5.608110 -50.866286 0.739998 -16.780733 -126.337794 -83.385367 110.856641 -2.832711 2.483029 0.343430 -0.459100 0.441810 0.149050 -12.426638 12.464674 15.054618 21.647856 -14.167587 -12.976455 -145.255184 52.698670 -134.858228 2.526980 -2.703094 0.352120 -0.227610 -0.370770 0.165950 
0.464450 16.841020 -2.388100 -1.870117 22.500765 -11.375066 -14.792342 13.177638 3.218399 1.816311 -0.153317 0.369318 -10.034865 6.794291 11.822796 0.825018 4.109409 3.219935 0.321150 0.146660 0.356610 18.443838 -12.018379 2.473069 -6.949134 -0.014911 -10.020239 7.334040 -9.671433 33.147448 -0.809248 -5.401999 2.377051 -0.310880 -0.344060 0.206850 -5.183704 0.281917 -7.700559 32.815525 -16.391357 27.652727 -31.702398 -4.909351 10.983331 13.780627 -5.562958 -16.388463 -15.481517 -4.500135 47.769920 7.115800 -16.369500 -16.688430 -15.227046 -4.213297 5.936080 -51.050225 2.539790 -12.399986 -60.178127 -86.733934 41.784693 -2.565045 4.106218 0.347760 -0.483920 0.453990 0.144160 -13.068746 11.978054 14.934947 19.428684 -14.788856 -12.485195 -136.665385 54.472807 -121.611960 2.634599 -2.625505 0.363890 -0.237570 -0.379350 0.166080 
0.495700 16.823750 -2.386630 -1.575948 23.089107 -10.634321 -14.821042 13.224389 3.263679 1.394722 -0.145452 0.071239 -10.278762 6.757197 11.400021 0.836895 4.054811 3.229433 0.326510 0.151320 0.367140 18.412550 -11.939526 2.467874 -7.447167 0.192128 -11.040134 7.621162 -9.909935 33.904667 -0.814594 -5.456768 2.346292 -0.316470 -0.370150 0.197240 -5.117713 0.022472 -7.739532 33.113316 -16.786834 26.785343 -32.296317 -5.073742 9.412572 14.236992 -5.636009 -16.535471 -15.877885 -4.280375 49.233145 6.350200 -16.554790 -15.759050 -15.733802 -3.279049 5.569373 -51.487907 4.404243 -15.128281 -43.711478 -79.283070 24.927361 -2.387109 4.142567 0.350180 -0.502530 0.464740 0.139360 -13.721134 11.712844 15.188279 17.452005 -14.971357 -11.573905 -126.402500 55.990788 -106.757714 2.761445 -2.257467 0.374380 -0.247320 -0.388260 0.164940 
0.524050 16.806360 -2.386090 -1.287509 23.582664 -9.951943 -14.844539 13.253645 3.302929 0.994410 -0.134849 -0.195288 -10.521670 6.729640 11.030435 0.841977 4.013518 3.236170 0.332030 0.155610 0.378240 18.387867 -11.870557 2.470928 -7.936219 0.401078 -11.983650 7.891304 -10.146216 34.615652 -0.821021 -5.523710 2.311880 -0.317990 -0.390550 0.190960 -5.063945 -0.196248 -7.778263 33.324896 -17.159476 25.962082 -32.831047 -5.200034 8.100008 14.661627 -5.629049 -16.635078 -16.007372 -4.217412 50.367102 5.512220 -16.638170 -14.838400 -16.181771 -2.464481 5.179818 -51.829822 5.854304 -16.296320 -35.540034 -73.172947 17.104757 -2.369262 4.044043 0.351970 -0.514230 0.473130 0.135570 -14.354618 11.864734 15.195102 15.677347 -15.086059 -11.584520 -115.662780 58.023644 -89.703455 2.815156 -1.409647 0.380730 -0.254880 -0.395830 0.162170 
0.550470 16.790090 -2.386370 -1.049863 23.997965 -9.392292 -14.861950 13.263957 3.340507 0.657494 -0.112664 -0.360322 -10.765360 6.707218 10.653520 0.844955 3.982489 3.242389 0.341930 0.164420 0.393500 18.368971 -11.818271 2.482893 -8.390338 0.590111 -12.783895 8.148658 -10.372909 35.234315 -0.829459 -5.596226 2.277618 -0.315300 -0.408130 0.186210 -5.027111 -0.352400 -7.822911 33.594966 -17.417399 25.194037 -33.296971 -5.188005 6.840877 15.051131 -5.544494 -16.514093 -15.777126 -4.303233 51.378547 4.607620 -16.640880 -14.025430 -16.585089 -2.033154 5.021894 -52.147279 7.030527 -16.989203 -29.735634 -67.621897 12.104204 -2.370350 3.957402 0.352930 -0.521960 0.480060 0.133210 -14.989730 12.777999 14.316273 14.075900 -15.923301 -13.852213 -104.893799 62.666059 -71.536942 2.644412 -0.503520 0.385900 -0.260640 -0.405520 0.158290 
0.575350 16.775200 -2.387420 -0.836897 24.355025 -8.928558 -14.872815 13.254591 3.374252 0.330472 -0.080512 -0.441856 -10.973402 6.680684 10.283720 0.846007 3.959117 3.247784 0.350720 0.172130 0.408720 18.357234 -11.784014 2.498080 -8.834463 0.758806 -13.469783 8.400114 -10.595175 35.773255 -0.838777 -5.672609 2.242450 -0.311220 -0.419890 0.184920 -5.012216 -0.421205 -7.867842 33.976905 -17.479415 24.417114 -33.718798 -5.051859 5.830007 15.356162 -5.331668 -16.292692 -15.141188 -4.584615 52.233764 3.792140 -16.633630 -13.377960 -16.928265 -2.054852 5.061162 -52.459742 7.969218 -17.418398 -25.167701 -62.579980 8.598000 -2.385073 3.881901 0.352830 -0.525160 0.486260 0.131320 -15.484862 13.787811 13.256842 12.479513 -16.791423 -16.218423 -90.383861 67.022487 -54.408625 2.491887 -0.582160 0.389250 -0.262950 -0.413110 0.154850 
